<svg width="400" height="142" viewBox="0 0 400 142" fill="none" xmlns="http://www.w3.org/2000/svg">
<path d="M76.1539 57.5539C81.0231 62.4269 79.3885 71.9577 79.3885 71.9577C79.3885 71.9577 69.8539 73.5962 64.9846 68.7231C60.1154 63.85 61.75 54.3231 61.75 54.3231C61.75 54.3231 71.2692 52.6923 76.1539 57.5539ZM33.6731 70.9654C33.6518 66.0078 34.6119 61.095 36.498 56.5101C38.3842 51.9253 41.1592 47.7591 44.663 44.2518C48.1668 40.7444 52.3301 37.9652 56.913 36.0743C61.4959 34.1835 66.4078 33.2184 71.3654 33.2346C81.1192 33.2346 89.4769 35.7231 95.8077 40.4808C96.1279 40.7199 96.4921 40.8937 96.8795 40.9921C97.2668 41.0905 97.6698 41.1117 98.0653 41.0543C98.4609 40.997 98.8413 40.8623 99.1848 40.658C99.5283 40.4537 99.8281 40.1837 100.067 39.8635C100.306 39.5433 100.48 39.1791 100.579 38.7917C100.677 38.4043 100.698 38.0014 100.641 37.6058C100.584 37.2103 100.449 36.8299 100.245 36.4864C100.04 36.1429 99.7702 35.843 99.45 35.6039C92.0692 30.0539 82.4808 27.1423 71.3731 27.1423C58.1539 27.1423 48.5539 31.3923 40.8231 39.1385C33.0924 46.8846 27.55 57.7769 27.55 70.9654C27.55 82.3654 30.627 92.1654 36.4616 99.6192C36.8645 98.71 37.4287 97.8812 38.127 97.1731C38.9097 96.3907 39.8443 95.7769 40.8731 95.3692C36.1539 89.05 33.6731 80.7115 33.6731 70.9654ZM115.212 70.9654C115.212 84.1077 111.112 95.1577 103.358 102.919C95.6038 110.681 84.5423 114.788 71.3885 114.788C59.5654 114.788 49.4654 111.496 41.9154 105.242C41.5929 104.97 41.3305 104.634 41.145 104.255C40.9595 103.877 40.8549 103.463 40.8379 103.042C40.8209 102.62 40.8919 102.2 41.0463 101.807C41.2006 101.415 41.4351 101.059 41.7347 100.762C42.2753 100.224 42.9973 99.9087 43.7588 99.8767C44.5203 99.8447 45.2662 100.099 45.85 100.588C52.2846 105.9 61.0462 108.696 71.3885 108.696C75.6839 108.725 79.9637 108.174 84.1115 107.058V80.5192C84.113 74.2577 86.3342 68.1994 90.3804 63.4208C94.4266 58.6423 100.036 55.4528 106.212 54.4192C104.957 51.1694 103.194 48.1393 100.988 45.4423C101.88 45.0435 102.691 44.4842 103.381 43.7923C104.177 42.9963 104.798 42.0425 105.204 40.9923C111.769 48.5962 115.227 58.8885 115.227 70.9654H115.212ZM109.119 70.9654C109.119 69.4654 109.054 68.0039 108.935 66.5731C105.519 66.978 102.371 68.6216 100.086 71.1927C97.8012 73.7638 96.539 77.0836 96.5385 80.5231V100.869C97.4206 100.164 98.2629 99.4102 99.0615 98.6115C105.65 92.0192 109.135 82.4577 109.135 70.9654H109.119Z" fill="#59B75B"/>
<path d="M236.412 50.8539C237.18 49.3655 237.664 47.7468 237.839 46.0808H232.592C232.269 47.9194 231.343 49.5984 229.962 50.8539H236.412Z" fill="#005BAC"/>
<path d="M218.696 50.8539C217.313 49.5995 216.388 47.92 216.066 46.0808H210.819C210.992 47.7471 211.476 49.3661 212.246 50.8539H218.696Z" fill="#005BAC"/>
<path d="M236.473 75.1154C237.24 73.6267 237.723 72.008 237.896 70.3423H232.65C232.331 72.1824 231.404 73.8626 230.019 75.1154H236.473Z" fill="#005BAC"/>
<path d="M218.758 75.1154C217.373 73.8626 216.447 72.1824 216.127 70.3423H210.881C211.056 72.0082 211.54 73.627 212.308 75.1154H218.758Z" fill="#005BAC"/>
<path d="M247.077 53.8884V51.4961C247.077 50.9226 246.612 50.4576 246.038 50.4576H202.619C202.046 50.4576 201.581 50.9226 201.581 51.4961V53.8884C201.581 54.4619 202.046 54.9269 202.619 54.9269H246.038C246.612 54.9269 247.077 54.4619 247.077 53.8884Z" fill="#005BAC"/>
<path d="M244.604 61.0885V58.6962C244.604 58.1227 244.139 57.6577 243.565 57.6577H205.208C204.634 57.6577 204.169 58.1227 204.169 58.6962V61.0885C204.169 61.662 204.634 62.1269 205.208 62.1269H243.565C244.139 62.1269 244.604 61.662 244.604 61.0885Z" fill="#005BAC"/>
<path d="M247.077 68.2884V65.8961C247.077 65.3226 246.612 64.8577 246.038 64.8577H202.619C202.046 64.8577 201.581 65.3226 201.581 65.8961V68.2884C201.581 68.862 202.046 69.3269 202.619 69.3269H246.038C246.612 69.3269 247.077 68.862 247.077 68.2884Z" fill="#005BAC"/>
<path d="M247.077 77.3807V74.9884C247.077 74.4149 246.612 73.95 246.038 73.95H202.619C202.046 73.95 201.581 74.4149 201.581 74.9884V77.3807C201.581 77.9542 202.046 78.4192 202.619 78.4192H246.038C246.612 78.4192 247.077 77.9542 247.077 77.3807Z" fill="#005BAC"/>
<path d="M221.885 68.8691H226.893V51.7999H221.885V68.8691Z" fill="#005BAC"/>
<path d="M208.73 95.8499H205.8C205.524 95.8499 205.26 95.7404 205.065 95.5457C204.871 95.351 204.761 95.0868 204.761 94.8114V80.5806H209.761V94.8114C209.761 95.0855 209.653 95.3485 209.46 95.543C209.267 95.7375 209.005 95.8478 208.73 95.8499Z" fill="#005BAC"/>
<path d="M204.765 80.573V85.5807H239.231V80.573H204.765Z" fill="#005BAC"/>
<path d="M204.765 88.5691V93.5768H242.223V88.5691H204.765Z" fill="#005BAC"/>
<path d="M242.785 95.8499H239.854C239.718 95.8499 239.583 95.823 239.457 95.7708C239.331 95.7186 239.216 95.6421 239.12 95.5457C239.023 95.4493 238.947 95.3348 238.895 95.2088C238.843 95.0828 238.816 94.9478 238.816 94.8114V80.5806C240.142 80.5806 241.414 81.1074 242.351 82.0451C243.289 82.9828 243.816 84.2546 243.816 85.5806V94.8114C243.816 95.0868 243.706 95.351 243.512 95.5457C243.317 95.7404 243.053 95.8499 242.777 95.8499H242.785Z" fill="#005BAC"/>
<path d="M150.335 58.1807C150.335 59.3663 150.805 60.5035 151.643 61.3422C152.482 62.181 153.618 62.6527 154.804 62.6537H169.762V58.1807H150.335Z" fill="#005BAC"/>
<path d="M187.5 59.2884V54.8192H172.285V59.2884H187.5Z" fill="#005BAC"/>
<path d="M168.861 70.6269V68.2346C168.861 67.6611 168.396 67.1962 167.823 67.1962H151.369C150.795 67.1962 150.331 67.6611 150.331 68.2346V70.6269C150.331 71.2005 150.795 71.6654 151.369 71.6654H167.823C168.396 71.6654 168.861 71.2005 168.861 70.6269Z" fill="#005BAC"/>
<path d="M155.338 62.6499H154.804C153.618 62.6499 152.482 62.179 151.644 61.3409C150.805 60.5028 150.335 59.366 150.335 58.1807V49.8576C150.335 49.5822 150.444 49.318 150.639 49.1233C150.833 48.9285 151.098 48.8191 151.373 48.8191H154.304C154.579 48.8191 154.843 48.9285 155.038 49.1233C155.233 49.318 155.342 49.5822 155.342 49.8576V62.6499H155.338Z" fill="#005BAC"/>
<path d="M162.55 62.6538H157.55V46.6192C157.55 46.3438 157.659 46.0796 157.854 45.8849C158.049 45.6901 158.313 45.5807 158.588 45.5807H161.519C161.795 45.5807 162.059 45.6901 162.253 45.8849C162.448 46.0796 162.558 46.3438 162.558 46.6192V62.6538H162.55Z" fill="#005BAC"/>
<path d="M166.454 88.9462H161.454V75.4616C161.454 75.1862 161.563 74.922 161.758 74.7273C161.953 74.5325 162.217 74.4231 162.492 74.4231H165.423C165.699 74.4231 165.963 74.5325 166.158 74.7273C166.352 74.922 166.462 75.1862 166.462 75.4616V88.9462H166.454Z" fill="#005BAC"/>
<path d="M145.3 96.3462H142.369C142.094 96.3462 141.83 96.2368 141.635 96.042C141.44 95.8473 141.331 95.5831 141.331 95.3077V69.3462H146.331V95.3077C146.331 95.5818 146.222 95.8448 146.029 96.0393C145.836 96.2339 145.574 96.3442 145.3 96.3462Z" fill="#005BAC"/>
<path d="M169.766 62.6499H164.766V49.8576C164.766 49.5822 164.875 49.318 165.07 49.1233C165.264 48.9285 165.529 48.8191 165.804 48.8191H168.735C169.01 48.8191 169.274 48.9285 169.469 49.1233C169.664 49.318 169.773 49.5822 169.773 49.8576V62.6499H169.766Z" fill="#005BAC"/>
<path d="M145.104 48.8115C142.791 52.3452 140.058 55.5855 136.966 58.4615C136.78 58.6359 136.664 58.8726 136.642 59.1265C136.619 59.3805 136.69 59.6338 136.842 59.8385L138.5 62.0461C138.588 62.1626 138.698 62.2594 138.825 62.3304C138.952 62.4014 139.093 62.445 139.238 62.4584C139.383 62.4718 139.529 62.4547 139.667 62.4082C139.805 62.3617 139.931 62.2869 140.039 62.1884C143.502 58.9749 146.586 55.3759 149.231 51.4615C149.309 51.3451 149.362 51.2141 149.388 51.0765C149.413 50.9388 149.411 50.7974 149.38 50.6608C149.35 50.5241 149.292 50.3951 149.21 50.2815C149.128 50.1679 149.024 50.0722 148.904 50C148.135 49.5269 147.316 48.9923 146.566 48.4962C146.45 48.4178 146.319 48.3638 146.182 48.3372C146.045 48.3107 145.904 48.3122 145.767 48.3416C145.631 48.3711 145.502 48.4279 145.388 48.5087C145.274 48.5895 145.177 48.6925 145.104 48.8115Z" fill="#005BAC"/>
<path d="M146.469 60.8577C144.277 64.7654 139.861 70.0884 135.904 73.2077C135.694 73.3677 135.553 73.601 135.509 73.8608C135.465 74.1205 135.521 74.3874 135.665 74.6077L137.204 76.9461C137.28 77.062 137.378 77.1614 137.493 77.2384C137.608 77.3154 137.738 77.3684 137.874 77.3942C138.01 77.4201 138.15 77.4182 138.285 77.3888C138.42 77.3594 138.548 77.303 138.661 77.2231C143.296 73.8346 147.823 68.0346 150.446 63.7346C149.177 62.9077 147.658 61.7615 146.469 60.8577Z" fill="#005BAC"/>
<path d="M152.539 75.4616V80.4615C152.539 82.7747 152.169 85.0731 151.442 87.2692L149.904 91.8846C149.839 92.0826 149.835 92.2956 149.893 92.4959C149.95 92.6962 150.067 92.8745 150.227 93.0077L152.646 95.0231C152.776 95.1312 152.931 95.206 153.097 95.2408C153.262 95.2756 153.434 95.2694 153.596 95.2228C153.759 95.1761 153.908 95.0904 154.03 94.9732C154.152 94.8559 154.243 94.7107 154.296 94.55L156.446 88.0769C157.174 85.8756 157.545 83.5722 157.546 81.2539V75.4616C157.546 75.1861 157.437 74.922 157.242 74.7273C157.047 74.5325 156.783 74.4231 156.508 74.4231H153.577C153.302 74.4231 153.037 74.5325 152.843 74.7273C152.648 74.922 152.539 75.1861 152.539 75.4616Z" fill="#005BAC"/>
<path d="M169.05 78.623C166.554 82.4482 163.546 85.9126 160.108 88.9192C159.922 89.0721 159.796 89.2846 159.751 89.5204C159.705 89.7562 159.743 90.0005 159.858 90.2115L161.227 92.7192C161.3 92.8523 161.402 92.9678 161.524 93.0577C161.647 93.1476 161.787 93.2097 161.936 93.2397C162.085 93.2697 162.239 93.2669 162.387 93.2315C162.535 93.1961 162.673 93.1288 162.792 93.0345C166.408 90.2076 169.908 86.0345 172.408 82.3576C172.519 82.1892 172.578 81.992 172.578 81.7903C172.578 81.5886 172.519 81.3914 172.408 81.223L170.769 78.6268C170.675 78.4846 170.548 78.3678 170.398 78.2869C170.248 78.2059 170.081 78.1633 169.91 78.163C169.74 78.1626 169.572 78.2044 169.422 78.2847C169.272 78.365 169.144 78.4812 169.05 78.623Z" fill="#005BAC"/>
<path d="M175.227 45.9153C174.988 45.9135 174.756 45.9939 174.57 46.1431C174.383 46.2924 174.254 46.5012 174.204 46.7345L172.923 52.5999C172.426 54.8606 171.569 57.0268 170.385 59.0153L166.477 65.5884C166.372 65.7658 166.323 65.9703 166.335 66.1759C166.348 66.3814 166.421 66.5786 166.546 66.7422L168.469 69.2345C168.573 69.368 168.708 69.4741 168.862 69.5437C169.017 69.6133 169.185 69.6443 169.354 69.6341C169.523 69.6239 169.687 69.5727 169.832 69.485C169.976 69.3973 170.097 69.2757 170.185 69.1307L175.096 60.8768C176.284 58.8884 177.147 56.7225 177.65 54.4615L179.235 47.1922C179.268 47.0414 179.267 46.8851 179.232 46.7346C179.197 46.5841 179.129 46.4434 179.033 46.3225C178.937 46.2016 178.815 46.1038 178.676 46.036C178.537 45.9682 178.385 45.9322 178.231 45.9307L175.227 45.9153Z" fill="#005BAC"/>
<path d="M180.7 56.7692L180.623 63.7576C180.522 72.8692 177.317 81.6739 171.539 88.7192L168.931 91.8961C168.785 92.0737 168.702 92.2949 168.696 92.5248C168.69 92.7546 168.76 92.98 168.896 93.1653L170.681 95.6076C170.774 95.7358 170.896 95.8408 171.036 95.9147C171.177 95.9885 171.332 96.0293 171.491 96.0337C171.649 96.0382 171.807 96.0062 171.951 95.9404C172.095 95.8745 172.223 95.7765 172.323 95.6538L176.539 90.5384C182.32 83.4928 185.526 74.6864 185.627 65.573L185.727 56.8269L180.7 56.7692Z" fill="#005BAC"/>
<path d="M186.746 92.2039C186.848 92.1123 186.932 92.0012 186.99 91.8771C187.049 91.753 187.083 91.6183 187.089 91.4811C187.095 91.3439 187.074 91.2068 187.026 91.0779C186.978 90.9491 186.905 90.8311 186.811 90.7308C179.843 83.1448 175.441 73.5565 174.231 63.327L173.958 61.0193L169.758 67.75C171.373 77.7159 176.025 86.9406 183.077 94.1654C183.266 94.3554 183.521 94.4657 183.79 94.4736C184.058 94.4814 184.319 94.3863 184.519 94.2077L186.746 92.2039Z" fill="#005BAC"/>
<path d="M261.35 58.0384V62.4346H273.535V58.0384H261.35Z" fill="#005BAC"/>
<path d="M274.488 58.0424H269.327C269.44 58.769 269.5 59.5031 269.504 60.2385C269.499 62.918 268.785 65.5485 267.434 67.8623C266.083 70.1762 264.143 72.0908 261.812 73.4116V79.0616C265.583 77.5636 268.819 74.9695 271.101 71.6142C273.383 68.2589 274.607 64.2965 274.615 60.2385C274.612 59.5047 274.57 58.7716 274.488 58.0424Z" fill="#005BAC"/>
<path d="M269.773 66.5961L266.28 70.8268C267.812 74.0706 268.137 77.7539 267.197 81.2157C266.258 84.6775 264.115 87.6911 261.154 89.7153V95.5691C263.743 94.3626 266.047 92.6202 267.914 90.4572C269.78 88.2941 271.166 85.7597 271.981 83.0212C272.795 80.2828 273.019 77.4027 272.638 74.5713C272.256 71.7399 271.279 69.0216 269.769 66.5961H269.773Z" fill="#005BAC"/>
<path d="M270.299 51.674C270.753 49.7513 269.562 47.8249 267.639 47.3711C265.717 46.9173 263.79 48.108 263.336 50.0307C262.883 51.9533 264.073 53.8798 265.996 54.3336C267.919 54.7874 269.845 53.5967 270.299 51.674Z" fill="#005BAC"/>
<path d="M276.023 89.1615L269.939 83.0769L266.285 86.7231L273.889 94.323H311.627C311.74 94.3236 311.853 94.3016 311.958 94.2586C312.063 94.2155 312.158 94.1521 312.239 94.0721C312.319 93.992 312.383 93.8969 312.426 93.7921C312.47 93.6873 312.492 93.575 312.492 93.4615V90.0192C312.492 89.9057 312.47 89.7934 312.426 89.6886C312.383 89.5838 312.319 89.4887 312.239 89.4086C312.158 89.3286 312.063 89.2652 311.958 89.2221C311.853 89.1791 311.74 89.1572 311.627 89.1577L276.023 89.1615Z" fill="#005BAC"/>
<path d="M277.527 68.4807V71.7422C277.527 72.218 277.913 72.6038 278.388 72.6038H309.469C309.945 72.6038 310.331 72.218 310.331 71.7422V68.4807C310.331 68.0049 309.945 67.6191 309.469 67.6191H278.388C277.913 67.6191 277.527 68.0049 277.527 68.4807Z" fill="#005BAC"/>
<path d="M276.223 76.0731V79.3346C276.223 79.8104 276.609 80.1962 277.085 80.1962H310.769C311.245 80.1962 311.631 79.8104 311.631 79.3346V76.0731C311.631 75.5973 311.245 75.2115 310.769 75.2115H277.085C276.609 75.2115 276.223 75.5973 276.223 76.0731Z" fill="#005BAC"/>
<path d="M281.639 64.3346H280.666C279.616 64.3346 278.609 63.9176 277.867 63.1754C277.125 62.4332 276.708 61.4265 276.708 60.3769V46.3577H281.631V64.3346H281.639Z" fill="#005BAC"/>
<path d="M288.369 64.3385H287.404V58.2385H292.327V60.3808C292.327 61.4304 291.91 62.4371 291.167 63.1793C290.425 63.9215 289.419 64.3385 288.369 64.3385Z" fill="#005BAC"/>
<path d="M276.716 46.3577V50.3154H287.404V46.3577H276.716Z" fill="#005BAC"/>
<path d="M276.719 53.0154V56.9731H287.408V53.0154H276.719Z" fill="#005BAC"/>
<path d="M292.327 60.3846H276.719C276.719 61.4343 277.136 62.4409 277.878 63.1832C278.621 63.9254 279.627 64.3423 280.677 64.3423H288.369C289.419 64.3423 290.426 63.9254 291.168 63.1832C291.91 62.4409 292.327 61.4343 292.327 60.3846Z" fill="#005BAC"/>
<path d="M287.408 46.3616V56.9731H292.327V51.2808C292.327 49.9761 291.809 48.7249 290.886 47.8024C289.964 46.8798 288.712 46.3616 287.408 46.3616Z" fill="#005BAC"/>
<path d="M298.988 64.3346H298.023C296.973 64.3346 295.967 63.9176 295.224 63.1754C294.482 62.4332 294.065 61.4265 294.065 60.3769V46.3577H298.988V64.3346Z" fill="#005BAC"/>
<path d="M299.369 79.2729H302.569C303.045 79.2729 303.431 78.8872 303.431 78.4114V66.373C303.431 65.8971 303.045 65.5114 302.569 65.5114H299.369C298.894 65.5114 298.508 65.8971 298.508 66.373V78.4114C298.508 78.8872 298.894 79.2729 299.369 79.2729Z" fill="#005BAC"/>
<path d="M285.289 79.2729H288.489C288.964 79.2729 289.35 78.8872 289.35 78.4114V66.373C289.35 65.8971 288.964 65.5114 288.489 65.5114H285.289C284.813 65.5114 284.427 65.8971 284.427 66.373V78.4114C284.427 78.8872 284.813 79.2729 285.289 79.2729Z" fill="#005BAC"/>
<path d="M305.72 64.3385H304.754V58.2385H309.677V60.3808C309.677 61.4304 309.26 62.4371 308.518 63.1793C307.776 63.9215 306.769 64.3385 305.72 64.3385Z" fill="#005BAC"/>
<path d="M294.065 46.3615V50.3192H304.754V46.3615H294.065Z" fill="#005BAC"/>
<path d="M294.065 53.0153V56.973H304.754V53.0153H294.065Z" fill="#005BAC"/>
<path d="M309.677 60.3846H294.065C294.065 61.4343 294.482 62.4409 295.225 63.1832C295.967 63.9254 296.973 64.3423 298.023 64.3423H305.715C306.235 64.3428 306.751 64.2408 307.231 64.0422C307.712 63.8435 308.149 63.5521 308.516 63.1845C308.884 62.817 309.176 62.3805 309.375 61.9001C309.574 61.4197 309.677 60.9047 309.677 60.3846Z" fill="#005BAC"/>
<path d="M304.754 46.3616V56.9731H309.677V51.2808C309.676 49.9758 309.157 48.7246 308.233 47.8021C307.31 46.8797 306.059 46.3616 304.754 46.3616Z" fill="#005BAC"/>
<path d="M281.065 90.277C284.306 88.7373 287.402 86.9094 290.315 84.8154C290.491 84.6865 290.611 84.4954 290.651 84.2811C290.691 84.0668 290.648 83.8453 290.531 83.6616C289.885 82.6731 289.212 81.2885 288.608 80.2462C288.547 80.1417 288.464 80.0516 288.365 79.9818C288.266 79.912 288.154 79.8642 288.035 79.8416C287.916 79.819 287.794 79.8221 287.676 79.8508C287.559 79.8794 287.449 79.933 287.354 80.0077C284.725 81.9626 281.905 83.6481 278.938 85.0385C278.74 85.1287 278.585 85.2919 278.505 85.4941C278.424 85.6963 278.426 85.9217 278.508 86.1231C278.946 87.2077 279.458 88.7385 279.881 89.8308C279.926 89.9402 279.994 90.0392 280.079 90.1216C280.165 90.2039 280.266 90.268 280.377 90.3098C280.488 90.3516 280.606 90.3702 280.724 90.3646C280.843 90.3589 280.959 90.3291 281.065 90.277Z" fill="#005BAC"/>
<path d="M307.615 90.277C304.382 88.7354 301.292 86.9076 298.384 84.8154C298.209 84.6865 298.089 84.4954 298.049 84.2811C298.008 84.0668 298.052 83.8453 298.169 83.6616C298.815 82.6731 299.488 81.2885 300.092 80.2462C300.153 80.1417 300.236 80.0516 300.335 79.9818C300.433 79.912 300.546 79.8642 300.665 79.8416C300.784 79.819 300.906 79.8221 301.023 79.8508C301.141 79.8794 301.251 79.933 301.346 80.0077C303.975 81.9627 306.795 83.6481 309.761 85.0385C309.959 85.1287 310.115 85.2919 310.195 85.4941C310.275 85.6963 310.274 85.9217 310.192 86.1231C309.754 87.2077 309.242 88.7385 308.819 89.8308C308.774 89.9428 308.706 90.044 308.619 90.1282C308.532 90.2123 308.429 90.2774 308.316 90.3194C308.202 90.3614 308.082 90.3793 307.961 90.372C307.84 90.3647 307.723 90.3323 307.615 90.277Z" fill="#005BAC"/>
<path d="M327.992 57.9846V61.2461C327.992 61.7219 328.378 62.1077 328.854 62.1077H340.927C341.403 62.1077 341.788 61.7219 341.788 61.2461V57.9846C341.788 57.5088 341.403 57.123 340.927 57.123H328.854C328.378 57.123 327.992 57.5088 327.992 57.9846Z" fill="#005BAC"/>
<path d="M346.285 57.7692V52.7692H367.496C368.143 52.7692 368.783 52.8965 369.38 53.1439C369.978 53.3913 370.52 53.754 370.978 54.2111C371.435 54.6683 371.797 55.211 372.045 55.8083C372.292 56.4056 372.42 57.0457 372.42 57.6922V57.7576H346.285V57.7692Z" fill="#005BAC"/>
<path d="M333.923 95.5H337.123C337.599 95.5 337.985 95.1143 337.985 94.6385V46.9424C337.985 46.4666 337.599 46.0808 337.123 46.0808H333.923C333.448 46.0808 333.062 46.4666 333.062 46.9424V94.6385C333.062 95.1143 333.448 95.5 333.923 95.5Z" fill="#005BAC"/>
<path d="M367.496 52.7808V94.273C368.142 94.273 368.783 94.1457 369.38 93.8983C369.977 93.6509 370.52 93.2882 370.977 92.8311C371.434 92.3739 371.797 91.8312 372.044 91.2339C372.292 90.6366 372.419 89.9965 372.419 89.3499V57.6923C372.416 56.3886 371.896 55.1394 370.973 54.2186C370.05 53.2979 368.8 52.7808 367.496 52.7808Z" fill="#005BAC"/>
<path d="M364.392 52.7808H359.469V63.2231C359.469 70.0354 357.284 76.6681 353.235 82.1461L347.535 89.8384C347.467 89.9295 347.418 90.033 347.39 90.1431C347.363 90.2532 347.357 90.3676 347.374 90.4798C347.391 90.592 347.43 90.6998 347.488 90.797C347.547 90.8942 347.624 90.9788 347.715 91.0461L350.285 92.9461C350.376 93.0138 350.479 93.0628 350.589 93.0904C350.699 93.1179 350.814 93.1234 350.926 93.1066C351.038 93.0899 351.146 93.0511 351.243 92.9925C351.34 92.9339 351.425 92.8567 351.492 92.7653L357.519 84.6153C361.981 78.5793 364.39 71.2716 364.392 63.7654V52.7808Z" fill="#005BAC"/>
<path d="M351.2 55.8153V61.7499C351.2 65.9506 349.942 70.0551 347.589 73.5345L342.735 80.8691C342.617 81.0522 342.573 81.2728 342.612 81.4868C342.651 81.7008 342.769 81.8924 342.942 82.023L345.512 83.923C345.606 83.9924 345.713 84.0419 345.827 84.0686C345.941 84.0952 346.059 84.0984 346.174 84.0778C346.289 84.0573 346.399 84.0136 346.497 83.9493C346.594 83.885 346.678 83.8014 346.742 83.7038L351.858 75.9807C354.633 71.8792 356.118 67.0407 356.119 62.0884V55.8153H351.2Z" fill="#005BAC"/>
<path d="M372.42 89.8768H363.077C362.849 89.8768 362.63 89.9676 362.468 90.1292C362.307 90.2907 362.216 90.5099 362.216 90.7384V93.4076C362.215 93.5211 362.237 93.6335 362.28 93.7385C362.323 93.8435 362.387 93.9389 362.467 94.0193C362.547 94.0997 362.642 94.1635 362.747 94.207C362.852 94.2506 362.964 94.273 363.077 94.273H368.012C368.59 94.2745 369.163 94.1619 369.698 93.9417C370.233 93.7214 370.719 93.3978 371.128 92.9895C371.537 92.5811 371.862 92.096 372.084 91.5618C372.306 91.0277 372.42 90.4551 372.42 89.8768Z" fill="#005BAC"/>
<path d="M326.781 51.2076C326.512 55.7268 324.858 62.5884 322.958 66.9153C322.869 67.1136 322.859 67.3385 322.93 67.5438C323.002 67.7492 323.149 67.9193 323.343 68.0191L326.035 69.4538C326.137 69.5083 326.249 69.5417 326.365 69.5518C326.48 69.5619 326.597 69.5487 326.707 69.5127C326.817 69.4768 326.919 69.419 327.007 69.3428C327.094 69.2666 327.165 69.1735 327.216 69.0691C329.589 64.1576 331.169 56.6961 331.546 51.6768C331.562 51.455 331.491 51.2357 331.347 51.066C331.203 50.8963 330.999 50.7897 330.777 50.7691C329.796 50.6691 328.731 50.5191 327.762 50.3845C327.642 50.3684 327.521 50.3773 327.405 50.4109C327.289 50.4444 327.182 50.5017 327.089 50.5792C326.997 50.6567 326.922 50.7526 326.869 50.8608C326.816 50.969 326.786 51.0872 326.781 51.2076Z" fill="#005BAC"/>
<path d="M345.942 46.9654C345.673 51.4846 344.019 58.3462 342.119 62.6692C342.03 62.8681 342.02 63.0936 342.091 63.2995C342.163 63.5055 342.31 63.6763 342.504 63.7769L345.196 65.2115C345.298 65.2661 345.411 65.2995 345.526 65.3096C345.642 65.3197 345.758 65.3064 345.868 65.2705C345.978 65.2346 346.08 65.1768 346.168 65.1006C346.255 65.0244 346.326 64.9313 346.377 64.8269C348.75 59.9192 350.331 52.4577 350.708 47.4346C350.723 47.2134 350.65 46.9951 350.507 46.8262C350.363 46.6573 350.159 46.5513 349.938 46.5308C348.958 46.4308 347.892 46.2808 346.923 46.1461C346.804 46.13 346.683 46.1389 346.567 46.1721C346.452 46.2054 346.344 46.2624 346.252 46.3395C346.16 46.4166 346.084 46.5121 346.031 46.6198C345.978 46.7276 345.947 46.8453 345.942 46.9654Z" fill="#005BAC"/>
<path d="M341.815 70.2961L325.154 76.4269C324.988 76.4882 324.845 76.5988 324.744 76.7439C324.643 76.889 324.588 77.0616 324.588 77.2384V80.7422C324.589 80.8803 324.623 81.0162 324.687 81.1386C324.751 81.261 324.843 81.3663 324.956 81.4457C325.069 81.5252 325.199 81.5764 325.336 81.5952C325.473 81.614 325.612 81.5998 325.742 81.5538L342.404 75.4192C342.569 75.3586 342.712 75.2486 342.813 75.1042C342.915 74.9598 342.969 74.7878 342.969 74.6115V71.1076C342.969 70.9693 342.936 70.8329 342.872 70.71C342.809 70.5872 342.716 70.4814 342.603 70.4018C342.49 70.3222 342.359 70.2711 342.222 70.2526C342.085 70.2342 341.945 70.2491 341.815 70.2961Z" fill="#005BAC"/>
</svg>
