<svg width="88" height="88" viewBox="0 0 88 88" fill="none" xmlns="http://www.w3.org/2000/svg">
<path d="M48.6038 30.4115C53.473 35.2846 51.8384 44.8154 51.8384 44.8154C51.8384 44.8154 42.3038 46.4538 37.4346 41.5807C32.5654 36.7077 34.2 27.1808 34.2 27.1808C34.2 27.1808 43.7192 25.55 48.6038 30.4115ZM6.12307 43.8231C6.10173 38.8654 7.06182 33.9526 8.948 29.3678C10.8342 24.783 13.6091 20.6168 17.1129 17.1094C20.6167 13.602 24.7801 10.8228 29.363 8.93197C33.9459 7.04112 38.8577 6.07602 43.8154 6.09231C53.5692 6.09231 61.9269 8.58077 68.2576 13.3385C68.5779 13.5776 68.9421 13.7514 69.3294 13.8498C69.7168 13.9482 70.1197 13.9693 70.5153 13.912C70.9108 13.8547 71.2912 13.72 71.6347 13.5157C71.9782 13.3114 72.2781 13.0414 72.5172 12.7211C72.7564 12.4009 72.9301 12.0367 73.0286 11.6494C73.127 11.262 73.1481 10.859 73.0908 10.4635C73.0335 10.068 72.8988 9.68757 72.6945 9.34408C72.4901 9.00058 72.2202 8.70069 71.8999 8.46153C64.5192 2.91154 54.9307 0 43.823 0C30.6038 0 21.0038 4.25 13.2731 11.9961C5.5423 19.7423 0 30.6346 0 43.8231C0 55.2231 3.07692 65.023 8.91153 72.4769C9.31447 71.5677 9.87869 70.7389 10.5769 70.0307C11.3597 69.2484 12.2942 68.6346 13.3231 68.2269C8.60384 61.9077 6.12307 53.5692 6.12307 43.8231ZM87.6615 43.8231C87.6615 56.9654 83.5615 68.0153 75.8076 75.7769C68.0538 83.5384 56.9923 87.6461 43.8384 87.6461C32.0154 87.6461 21.9154 84.3538 14.3654 78.1C14.0429 77.8281 13.7805 77.492 13.595 77.1131C13.4095 76.7342 13.3049 76.3209 13.2879 75.8994C13.2709 75.4779 13.3418 75.0575 13.4962 74.6649C13.6506 74.2723 13.885 73.9162 14.1846 73.6192C14.7253 73.082 15.4472 72.7664 16.2087 72.7344C16.9702 72.7024 17.7161 72.9562 18.3 73.4461C24.7346 78.7577 33.4961 81.5538 43.8384 81.5538C48.1339 81.5831 52.4136 81.032 56.5615 79.9153V53.3769C56.5629 47.1154 58.7841 41.0571 62.8303 36.2785C66.8766 31.4999 72.4858 28.3105 78.6615 27.2769C77.4065 24.027 75.6436 20.997 73.4384 18.3C74.3301 17.9011 75.141 17.3418 75.8307 16.65C76.6269 15.8539 77.2479 14.9002 77.6538 13.85C84.2192 21.4538 87.6768 31.7461 87.6768 43.8231H87.6615ZM81.5692 43.8231C81.5692 42.3231 81.5038 40.8615 81.3845 39.4308C77.969 39.8356 74.8205 41.4793 72.5359 44.0504C70.2512 46.6214 68.989 49.9413 68.9884 53.3807V73.7269C69.8705 73.0216 70.7128 72.2678 71.5115 71.4692C78.0999 64.8769 81.5845 55.3154 81.5845 43.8231H81.5692Z" fill="#59B75B"/>
</svg>
