<?xml version="1.0" standalone="no"?>
<!DOCTYPE svg PUBLIC "-//W3C//DTD SVG 20010904//EN"
 "http://www.w3.org/TR/2001/REC-SVG-20010904/DTD/svg10.dtd">
<svg version="1.0" xmlns="http://www.w3.org/2000/svg"
 width="700.000000pt" height="700.000000pt" viewBox="0 0 700.000000 700.000000"
 preserveAspectRatio="xMidYMid meet">
<metadata>
Created by potrace 1.14, written by Peter Selinger 2001-2017
</metadata>
<g transform="translate(0.000000,700.000000) scale(0.100000,-0.100000)"
fill="#000000" stroke="none">
<path d="M3239 6996 c-2 -2 -49 -6 -105 -10 -55 -4 -109 -8 -120 -10 -10 -2
-46 -6 -79 -10 -33 -4 -96 -13 -140 -21 -44 -8 -95 -17 -113 -20 -68 -11 -308
-76 -410 -111 -218 -73 -461 -190 -658 -315 -55 -35 -101 -66 -104 -69 -3 -3
-21 -17 -40 -30 -150 -102 -419 -348 -570 -520 -380 -433 -649 -934 -786
-1467 -18 -73 -36 -145 -39 -161 -2 -16 -11 -64 -20 -107 -8 -43 -17 -103 -21
-132 -3 -30 -7 -63 -9 -73 -26 -135 -26 -749 0 -911 2 -13 6 -48 9 -78 59
-527 247 -1075 502 -1469 73 -114 166 -242 173 -242 3 1 17 24 31 53 36 74
168 204 252 248 l68 35 -40 52 c-90 120 -220 361 -290 537 -79 199 -120 335
-164 550 -25 123 -30 153 -41 240 -4 28 -8 57 -10 65 -4 13 -10 86 -21 240 -4
68 -5 462 0 485 2 11 7 56 11 100 8 88 7 84 36 240 107 582 412 1154 835 1565
160 155 182 174 315 272 295 218 609 374 946 472 125 36 324 79 423 92 30 3
64 8 75 10 11 2 70 7 130 11 221 14 525 4 725 -22 19 -3 55 -7 80 -10 25 -3
81 -13 125 -21 44 -8 96 -17 115 -20 19 -3 38 -8 43 -11 4 -2 20 -7 35 -9 78
-14 404 -116 427 -134 6 -4 21 -11 35 -15 48 -15 252 -115 338 -166 85 -51
202 -128 212 -140 3 -3 26 -18 51 -32 61 -36 122 -43 190 -23 180 52 234 276
97 405 -82 77 -295 210 -502 313 -220 110 -561 231 -766 272 -14 2 -50 10 -80
16 -30 6 -66 13 -80 16 -14 2 -47 9 -75 14 -27 5 -72 12 -100 16 -27 3 -61 7
-75 9 -14 2 -56 7 -95 10 -38 4 -86 9 -105 11 -41 6 -616 15 -621 10z"/>
<path d="M6140 5823 c-43 -83 -154 -198 -233 -243 -32 -18 -56 -38 -54 -44 3
-6 35 -51 72 -101 111 -149 218 -338 313 -557 l20 -47 -26 -6 c-15 -3 -40 -8
-57 -11 -16 -3 -73 -17 -125 -31 -752 -203 -1328 -810 -1500 -1578 -27 -120
-35 -176 -45 -295 -2 -25 -4 -545 -4 -1156 l-1 -1112 -47 -12 c-56 -14 -49
-12 -178 -39 -99 -20 -117 -23 -205 -36 -25 -4 -56 -8 -70 -10 -33 -5 -107
-13 -200 -22 -153 -14 -595 -7 -745 12 -16 2 -55 6 -85 10 -48 5 -157 23 -255
41 -172 31 -461 119 -627 190 -194 82 -444 231 -598 354 -78 62 -120 81 -180
82 -146 2 -254 -106 -252 -251 2 -81 43 -141 156 -229 308 -240 668 -421 1071
-540 111 -33 345 -87 415 -97 25 -3 52 -8 60 -10 15 -4 47 -9 140 -20 25 -3
61 -8 80 -10 197 -27 867 -27 1008 -1 9 2 44 7 77 10 33 4 71 9 85 11 507 80
937 229 1310 453 554 334 981 835 1228 1442 90 223 143 396 193 635 31 147 33
157 45 245 4 30 8 57 9 60 1 3 5 39 9 80 4 41 9 91 11 110 23 183 22 622 0
840 -13 130 -16 157 -20 180 -2 14 -7 45 -10 70 -12 90 -37 218 -66 340 -98
407 -261 784 -477 1100 -71 104 -192 260 -201 260 -3 0 -22 -30 -41 -67z m341
-2053 c10 -187 -1 -684 -16 -710 -1 -3 -6 -36 -10 -75 -10 -91 -10 -95 -18
-130 -3 -16 -9 -48 -12 -70 -11 -76 -74 -321 -110 -430 -115 -341 -282 -646
-488 -890 -64 -75 -238 -249 -295 -293 l-42 -34 0 34 c-4 244 1 1664 5 1706
25 228 133 465 287 629 167 179 361 288 605 342 91 21 88 23 94 -79z"/>
<path d="M2869 4856 c-2 -2 -35 -6 -73 -9 -37 -3 -70 -8 -72 -10 -18 -18 -26
-416 -11 -527 43 -315 145 -523 331 -674 119 -98 329 -180 517 -202 30 -3 74
-9 99 -13 44 -7 320 -5 370 3 14 2 39 4 56 5 39 1 41 7 50 118 18 219 5 417
-41 599 -70 278 -210 466 -430 577 -97 49 -199 83 -297 101 -46 9 -96 18 -113
21 -32 7 -380 16 -386 11z"/>
</g>
</svg>
